<svg width="28" height="28" viewBox="0 0 28 28" fill="none" xmlns="http://www.w3.org/2000/svg">
<path d="M22.0269 19.952H17.9086C17.6282 19.952 17.3925 19.856 17.2016 19.6639C17.0104 19.472 16.9148 19.235 16.9148 18.9531C16.9148 18.6713 17.0104 18.4361 17.2016 18.2475C17.3925 18.0589 17.6282 17.9646 17.9086 17.9646H22.0269L20.6983 16.6072C20.5197 16.4091 20.4266 16.1805 20.4192 15.9215C20.4118 15.6627 20.5095 15.4318 20.7123 15.2288C20.9107 15.0305 21.1427 14.9313 21.4086 14.9313C21.6744 14.9313 21.9064 15.0305 22.1048 15.2288L25.1311 18.2551C25.2423 18.3663 25.3209 18.4796 25.3668 18.5949C25.4127 18.7104 25.4356 18.8315 25.4356 18.9583C25.4356 19.0851 25.4127 19.2062 25.3668 19.3217C25.3209 19.437 25.2423 19.5503 25.1311 19.6615L22.1048 22.6879C21.9064 22.8862 21.6732 22.9842 21.4051 22.9819C21.1369 22.9795 20.899 22.8745 20.6913 22.6669C20.4979 22.4734 20.406 22.2483 20.4157 21.9917C20.4254 21.735 20.5173 21.5076 20.6913 21.3095L22.0269 19.952ZM4.20226 19.952C3.65587 19.952 3.18804 19.7574 2.79876 19.3681C2.40948 18.9788 2.21484 18.511 2.21484 17.9646V5.3687C2.21484 4.82231 2.40948 4.35448 2.79876 3.9652C3.18804 3.57593 3.65587 3.38129 4.20226 3.38129H20.2982C20.8446 3.38129 21.3124 3.57593 21.7017 3.9652C22.091 4.35448 22.2856 4.82231 22.2856 5.3687V10.9255C22.2856 11.1913 22.1859 11.4234 21.9866 11.6217C21.7873 11.8199 21.554 11.919 21.2866 11.919C21.0049 11.919 20.7697 11.8235 20.5811 11.6325C20.3925 11.4416 20.2982 11.2059 20.2982 10.9255V6.85095L12.1336 12.6297L4.20226 6.88012V17.9646H13.2299C13.5103 17.9646 13.746 18.0607 13.9369 18.2528C14.1279 18.4447 14.2233 18.6816 14.2233 18.9636C14.2233 19.2453 14.1279 19.4805 13.9369 19.6691C13.746 19.8577 13.5103 19.952 13.2299 19.952H4.20226ZM5.50309 5.3687L12.1336 10.1786L18.925 5.3687H5.50309Z" fill="#FF9F1C"/>
</svg>
