<svg width="24" height="24" viewBox="0 0 24 24" fill="none" xmlns="http://www.w3.org/2000/svg">
<path d="M19.9956 10.8517C19.754 10.8517 19.5525 10.7694 19.3908 10.6047C19.2291 10.4402 19.1483 10.2371 19.1483 9.99547C19.1483 9.75397 19.2306 9.55238 19.3953 9.39072C19.5598 9.22905 19.7629 9.14822 20.0045 9.14822C20.246 9.14822 20.4476 9.23055 20.6093 9.39522C20.771 9.55972 20.8518 9.7628 20.8518 10.0045C20.8518 10.246 20.7695 10.4475 20.6048 10.6092C20.4403 10.7709 20.2372 10.8517 19.9956 10.8517ZM19.9956 7.64822C19.754 7.64822 19.5525 7.56638 19.3908 7.40271C19.2291 7.23905 19.1483 7.03505 19.1483 6.79072V3.79072C19.1483 3.55038 19.2306 3.34838 19.3953 3.18472C19.5598 3.02088 19.7629 2.93896 20.0045 2.93896C20.246 2.93896 20.4476 3.02088 20.6093 3.18472C20.771 3.34838 20.8518 3.55038 20.8518 3.79072V6.79072C20.8518 7.03505 20.7695 7.23905 20.6048 7.40271C20.4403 7.56638 20.2372 7.64822 19.9956 7.64822ZM9.0108 11.8972C7.86613 11.8972 6.9303 11.5337 6.2033 10.8067C5.47613 10.0795 5.11255 9.14363 5.11255 7.99897C5.11255 6.8543 5.47613 5.91805 6.2033 5.19021C6.9303 4.46221 7.86613 4.09821 9.0108 4.09821C10.1555 4.09821 11.0927 4.46221 11.8225 5.19021C12.5525 5.91805 12.9175 6.8543 12.9175 7.99897C12.9175 9.14363 12.5525 10.0795 11.8225 10.8067C11.0927 11.5337 10.1555 11.8972 9.0108 11.8972ZM0.862549 18.524V17.7157C0.862549 17.1032 1.01672 16.549 1.32505 16.053C1.63355 15.5568 2.07397 15.1839 2.6463 14.9342C3.9043 14.3802 5.0243 13.9897 6.0063 13.7627C6.98847 13.5357 7.98805 13.4222 9.00505 13.4222C10.0295 13.4222 11.0311 13.5357 12.0098 13.7627C12.9885 13.9897 14.1048 14.3802 15.3588 14.9342C15.9311 15.196 16.3756 15.5709 16.6923 16.0587C17.0091 16.5467 17.1675 17.099 17.1675 17.7157V18.524C17.1675 18.9921 17.0011 19.393 16.6683 19.7267C16.3356 20.0604 15.9323 20.2272 15.4583 20.2272H2.5658C2.09747 20.2272 1.69655 20.0604 1.36305 19.7267C1.02938 19.393 0.862549 18.9921 0.862549 18.524ZM2.5658 18.524H15.4583V17.7397C15.4583 17.4754 15.3831 17.2234 15.2328 16.9837C15.0825 16.7441 14.882 16.5665 14.6315 16.451C13.4692 15.9133 12.4837 15.559 11.675 15.388C10.8664 15.217 9.97772 15.1315 9.00905 15.1315C8.04838 15.1315 7.15855 15.217 6.33955 15.388C5.52038 15.559 4.52997 15.9132 3.3683 16.4507C3.11663 16.5662 2.91997 16.7438 2.7783 16.9835C2.63663 17.2233 2.5658 17.4754 2.5658 17.7397V18.524ZM9.0118 10.194C9.64997 10.194 10.1755 9.9868 10.5885 9.57247C11.0017 9.15797 11.2083 8.63313 11.2083 7.99796C11.2083 7.36113 11.0018 6.83588 10.5888 6.42222C10.176 6.00855 9.65147 5.80172 9.0153 5.80172C8.37897 5.80172 7.8533 6.00863 7.4383 6.42247C7.0233 6.83647 6.8158 7.36063 6.8158 7.99497C6.8158 8.63113 7.02305 9.15663 7.43755 9.57147C7.85188 9.98646 8.37663 10.194 9.0118 10.194Z" fill="white"/>
</svg>
